<?xml version="1.0" standalone="no"?>
<!DOCTYPE svg PUBLIC "-//W3C//DTD SVG 20010904//EN"
 "http://www.w3.org/TR/2001/REC-SVG-20010904/DTD/svg10.dtd">
<svg version="1.0" xmlns="http://www.w3.org/2000/svg"
 width="1563.000000pt" height="1563.000000pt" viewBox="0 0 1563.000000 1563.000000"
 preserveAspectRatio="xMidYMid meet">

<g transform="translate(0.000000,1563.000000) scale(0.100000,-0.100000)"
fill="#000000" stroke="none">
<path d="M7912 13528 c-11 -18 -140 -240 -287 -493 -147 -253 -356 -611 -463
-795 -223 -383 -391 -672 -549 -945 -375 -645 -531 -915 -643 -1110 -70 -121
-196 -339 -280 -485 -84 -146 -246 -427 -360 -625 -114 -198 -364 -632 -555
-965 -500 -870 -1675 -2917 -1900 -3310 -105 -184 -482 -841 -837 -1460 -553
-963 -698 -1224 -698 -1255 0 -3 2368 -4 5262 -3 l5263 3 86 150 c202 353 907
1592 918 1613 l12 23 -638 -4 c-924 -7 -4027 -8 -4508 -1 -225 3 -1036 5
-1802 4 l-1391 0 -7 30 c-7 33 -9 29 175 345 48 83 181 312 295 510 114 198
256 443 315 545 59 102 167 289 240 415 73 127 181 313 240 415 59 102 183
316 275 475 182 314 496 855 660 1135 56 96 155 266 220 378 77 133 130 213
153 232 76 63 34 60 1099 63 534 1 974 -1 978 -5 8 -8 55 75 -1178 -2068 -115
-201 -304 -529 -419 -730 -116 -201 -219 -380 -230 -397 l-20 -33 1069 0 1068
0 95 163 c110 190 627 1077 1048 1797 162 278 504 872 760 1320 256 448 736
1290 1067 1870 1622 2841 1825 3198 1831 3214 6 15 -72 16 -1051 14 l-1057 -3
-167 -290 c-92 -159 -281 -488 -421 -730 -139 -242 -283 -492 -320 -555 -37
-63 -154 -266 -260 -450 -106 -184 -223 -387 -260 -450 -37 -63 -134 -230
-215 -370 -192 -330 -252 -402 -353 -422 -46 -9 -1970 -14 -1978 -5 -3 3 80
152 184 333 424 739 694 1208 784 1364 52 91 217 377 365 635 480 836 505 880
525 913 l20 32 -1070 0 -1070 0 -20 -32z"/>
</g>
</svg>
